<?xml version="1.0" encoding="UTF-8" standalone="no"?><svg xmlns="http://www.w3.org/2000/svg" xmlns:xlink="http://www.w3.org/1999/xlink" contentScriptType="application/ecmascript" contentStyleType="text/css" height="217px" preserveAspectRatio="none" style="width:125px;height:217px;" version="1.1" viewBox="0 0 125 217" width="125px" zoomAndPan="magnify"><defs><filter height="300%" id="f1ffsl6gaal2n9" width="300%" x="-1" y="-1"><feGaussianBlur result="blurOut" stdDeviation="2.0"/><feColorMatrix in="blurOut" result="blurOut2" type="matrix" values="0 0 0 0 0 0 0 0 0 0 0 0 0 0 0 0 0 0 .4 0"/><feOffset dx="4.0" dy="4.0" in="blurOut2" result="blurOut3"/><feBlend in="SourceGraphic" in2="blurOut3" mode="normal"/></filter></defs><g><!--MD5=[30299a58ba6b78debaaed5ddbb42f29a]
class Deck--><rect fill="#FEFECE" filter="url(#f1ffsl6gaal2n9)" height="48" id="Deck" style="stroke: #A80036; stroke-width: 1.5;" width="61" x="29.5" y="8"/><ellipse cx="44.5" cy="24" fill="#DA70D6" rx="11" ry="11" style="stroke: #A80036; stroke-width: 1.0;"/><path d="M43.7334,25.063 Q41.8823,24.3574 41.2266,23.5813 Q40.5708,22.8052 40.5708,21.4937 Q40.5708,19.8086 41.6499,18.8457 Q42.729,17.8828 44.6133,17.8828 Q45.4683,17.8828 46.3232,18.0779 Q47.1782,18.2729 48.0166,18.6548 L48.0166,21.0454 Q47.228,20.4893 46.4146,20.1987 Q45.6011,19.9082 44.8042,19.9082 Q43.916,19.9082 43.4429,20.2651 Q42.9697,20.6221 42.9697,21.2861 Q42.9697,21.8008 43.3142,22.137 Q43.6587,22.4731 44.7544,22.8799 L45.8086,23.2783 Q47.3027,23.8262 48.0083,24.731 Q48.7139,25.6357 48.7139,27.0137 Q48.7139,28.8896 47.6057,29.8152 Q46.4976,30.7407 44.2563,30.7407 Q43.335,30.7407 42.4094,30.5208 Q41.4839,30.3008 40.6206,29.8691 L40.6206,27.3374 Q41.6001,28.0347 42.5173,28.375 Q43.4346,28.7153 44.3311,28.7153 Q45.2358,28.7153 45.7339,28.3044 Q46.2319,27.8936 46.2319,27.1548 Q46.2319,26.5986 45.8999,26.1794 Q45.5679,25.7603 44.937,25.5195 Z "/><text fill="#000000" font-family="sans-serif" font-size="12" lengthAdjust="spacingAndGlyphs" textLength="29" x="58.5" y="28.5352">Deck</text><line style="stroke: #A80036; stroke-width: 1.5;" x1="30.5" x2="89.5" y1="40" y2="40"/><line style="stroke: #A80036; stroke-width: 1.5;" x1="30.5" x2="89.5" y1="48" y2="48"/><!--MD5=[5e305716458bbdabbd2d7f572ed2bae2]
class Card--><rect fill="#FEFECE" filter="url(#f1ffsl6gaal2n9)" height="73.9102" id="Card" style="stroke: #A80036; stroke-width: 1.5;" width="108" x="6" y="133"/><ellipse cx="42.6" cy="149" fill="#DA70D6" rx="11" ry="11" style="stroke: #A80036; stroke-width: 1.0;"/><path d="M41.8334,150.063 Q39.9823,149.3574 39.3266,148.5813 Q38.6708,147.8052 38.6708,146.4937 Q38.6708,144.8086 39.7499,143.8457 Q40.829,142.8828 42.7133,142.8828 Q43.5683,142.8828 44.4232,143.0779 Q45.2782,143.2729 46.1166,143.6548 L46.1166,146.0454 Q45.328,145.4893 44.5146,145.1987 Q43.7011,144.9082 42.9042,144.9082 Q42.016,144.9082 41.5429,145.2651 Q41.0697,145.6221 41.0697,146.2861 Q41.0697,146.8008 41.4142,147.137 Q41.7587,147.4731 42.8544,147.8799 L43.9086,148.2783 Q45.4027,148.8262 46.1083,149.731 Q46.8139,150.6357 46.8139,152.0137 Q46.8139,153.8896 45.7057,154.8152 Q44.5976,155.7407 42.3563,155.7407 Q41.435,155.7407 40.5094,155.5208 Q39.5839,155.3008 38.7206,154.8691 L38.7206,152.3374 Q39.7001,153.0347 40.6173,153.375 Q41.5346,153.7153 42.4311,153.7153 Q43.3358,153.7153 43.8339,153.3044 Q44.3319,152.8936 44.3319,152.1548 Q44.3319,151.5986 43.9999,151.1794 Q43.6679,150.7603 43.037,150.5195 Z "/><text fill="#000000" font-family="sans-serif" font-size="12" lengthAdjust="spacingAndGlyphs" textLength="28" x="61.4" y="153.5352">Card</text><line style="stroke: #A80036; stroke-width: 1.5;" x1="7" x2="113" y1="165" y2="165"/><text fill="#000000" font-family="sans-serif" font-size="11" lengthAdjust="spacingAndGlyphs" textLength="67" x="12" y="179.6348">suit: Integer,</text><text fill="#000000" font-family="sans-serif" font-size="11" lengthAdjust="spacingAndGlyphs" textLength="96" x="12" y="192.5898">numbder: Integer,</text><line style="stroke: #A80036; stroke-width: 1.5;" x1="7" x2="113" y1="198.9102" y2="198.9102"/><!--MD5=[5cf861f56d83ae4345dbc2180ae8b1d0]
reverse link Deck to Card--><path d="M60,69.19 C60,88.93 60,113.29 60,133 " fill="none" id="Deck&lt;-Card" style="stroke: #A80036; stroke-width: 1.0;"/><polygon fill="#FFFFFF" points="60,56.07,56,62.07,60,68.07,64,62.07,60,56.07" style="stroke: #A80036; stroke-width: 1.0;"/><text fill="#000000" font-family="sans-serif" font-size="13" lengthAdjust="spacingAndGlyphs" textLength="34" x="61" y="99.5684">cards</text><text fill="#000000" font-family="sans-serif" font-size="13" lengthAdjust="spacingAndGlyphs" textLength="8" x="51.025" y="76.3714">1</text><text fill="#000000" font-family="sans-serif" font-size="13" lengthAdjust="spacingAndGlyphs" textLength="8" x="51.2375" y="122.1237">n</text><!--MD5=[2fb82683c1d65be82d26af670be78555]
@startuml
class Deck << (S,orchid) >>
class Card << (S,orchid) >> {
    suit: Integer,
    numbder: Integer,
}
Deck "1" o- - "n" Card: cards
@enduml

PlantUML version 1.2020.10(Sun May 17 18:35:57 JST 2020)
(GPL source distribution)
Java Runtime: Java(TM) SE Runtime Environment
JVM: Java HotSpot(TM) 64-Bit Server VM
Java Version: 1.8.0_171-b11
Operating System: Mac OS X
Default Encoding: US-ASCII
Language: ja
Country: JP
--></g></svg>