<?xml version="1.0" encoding="UTF-8" standalone="no"?><svg xmlns="http://www.w3.org/2000/svg" xmlns:xlink="http://www.w3.org/1999/xlink" contentScriptType="application/ecmascript" contentStyleType="text/css" height="327px" preserveAspectRatio="none" style="width:550px;height:327px;" version="1.1" viewBox="0 0 550 327" width="550px" zoomAndPan="magnify"><defs><filter height="300%" id="f10bipx5501vv0" width="300%" x="-1" y="-1"><feGaussianBlur result="blurOut" stdDeviation="2.0"/><feColorMatrix in="blurOut" result="blurOut2" type="matrix" values="0 0 0 0 0 0 0 0 0 0 0 0 0 0 0 0 0 0 .4 0"/><feOffset dx="4.0" dy="4.0" in="blurOut2" result="blurOut3"/><feBlend in="SourceGraphic" in2="blurOut3" mode="normal"/></filter></defs><g><rect fill="#FFFFFF" filter="url(#f10bipx5501vv0)" height="126" style="stroke: #A80036; stroke-width: 1.0;" width="10" x="298.5" y="112.1094"/><line style="stroke: #A80036; stroke-width: 1.0; stroke-dasharray: 5.0,5.0;" x1="55" x2="55" y1="51.4883" y2="270.1094"/><line style="stroke: #A80036; stroke-width: 1.0; stroke-dasharray: 5.0,5.0;" x1="172" x2="172" y1="51.4883" y2="270.1094"/><line style="stroke: #A80036; stroke-width: 1.0; stroke-dasharray: 5.0,5.0;" x1="303" x2="303" y1="51.4883" y2="270.1094"/><line style="stroke: #A80036; stroke-width: 1.0; stroke-dasharray: 5.0,5.0;" x1="462" x2="462" y1="51.4883" y2="270.1094"/><text fill="#000000" font-family="sans-serif" font-size="14" lengthAdjust="spacingAndGlyphs" textLength="89" x="8" y="48.5352">StubResolver</text><ellipse cx="55.5" cy="19" fill="#FEFECE" filter="url(#f10bipx5501vv0)" rx="12" ry="12" style="stroke: #A80036; stroke-width: 2.0;"/><line style="stroke: #A80036; stroke-width: 2.0;" x1="43.5" x2="67.5" y1="33" y2="33"/><text fill="#000000" font-family="sans-serif" font-size="14" lengthAdjust="spacingAndGlyphs" textLength="89" x="8" y="282.6445">StubResolver</text><ellipse cx="55.5" cy="301.5977" fill="#FEFECE" filter="url(#f10bipx5501vv0)" rx="12" ry="12" style="stroke: #A80036; stroke-width: 2.0;"/><line style="stroke: #A80036; stroke-width: 2.0;" x1="43.5" x2="67.5" y1="315.5977" y2="315.5977"/><text fill="#000000" font-family="sans-serif" font-size="14" lengthAdjust="spacingAndGlyphs" textLength="99" x="120" y="48.5352">DNSForwarder</text><path d="M152,7 L152,31 M152,19 L169,19 " fill="none" filter="url(#f10bipx5501vv0)" style="stroke: #A80036; stroke-width: 2.0;"/><ellipse cx="181" cy="19" fill="#FEFECE" filter="url(#f10bipx5501vv0)" rx="12" ry="12" style="stroke: #A80036; stroke-width: 2.0;"/><text fill="#000000" font-family="sans-serif" font-size="14" lengthAdjust="spacingAndGlyphs" textLength="99" x="120" y="282.6445">DNSForwarder</text><path d="M152,289.5977 L152,313.5977 M152,301.5977 L169,301.5977 " fill="none" filter="url(#f10bipx5501vv0)" style="stroke: #A80036; stroke-width: 2.0;"/><ellipse cx="181" cy="301.5977" fill="#FEFECE" filter="url(#f10bipx5501vv0)" rx="12" ry="12" style="stroke: #A80036; stroke-width: 2.0;"/><text fill="#000000" font-family="sans-serif" font-size="14" lengthAdjust="spacingAndGlyphs" textLength="131" x="235" y="48.5352">FullServiceResolver</text><ellipse cx="303.5" cy="19" fill="#FEFECE" filter="url(#f10bipx5501vv0)" rx="12" ry="12" style="stroke: #A80036; stroke-width: 2.0;"/><line style="stroke: #A80036; stroke-width: 2.0;" x1="291.5" x2="315.5" y1="33" y2="33"/><text fill="#000000" font-family="sans-serif" font-size="14" lengthAdjust="spacingAndGlyphs" textLength="131" x="235" y="282.6445">FullServiceResolver</text><ellipse cx="303.5" cy="301.5977" fill="#FEFECE" filter="url(#f10bipx5501vv0)" rx="12" ry="12" style="stroke: #A80036; stroke-width: 2.0;"/><line style="stroke: #A80036; stroke-width: 2.0;" x1="291.5" x2="315.5" y1="315.5977" y2="315.5977"/><rect fill="#FEFECE" filter="url(#f10bipx5501vv0)" height="30.4883" style="stroke: #A80036; stroke-width: 1.5;" width="153" x="386" y="12"/><rect fill="#FEFECE" filter="url(#f10bipx5501vv0)" height="30.4883" style="stroke: #A80036; stroke-width: 1.5;" width="153" x="382" y="16"/><text fill="#000000" font-family="sans-serif" font-size="14" lengthAdjust="spacingAndGlyphs" textLength="139" x="389" y="36.5352">AuthoritativeServers</text><rect fill="#FEFECE" filter="url(#f10bipx5501vv0)" height="30.4883" style="stroke: #A80036; stroke-width: 1.5;" width="153" x="386" y="269.1094"/><rect fill="#FEFECE" filter="url(#f10bipx5501vv0)" height="30.4883" style="stroke: #A80036; stroke-width: 1.5;" width="153" x="382" y="273.1094"/><text fill="#000000" font-family="sans-serif" font-size="14" lengthAdjust="spacingAndGlyphs" textLength="139" x="389" y="293.6445">AuthoritativeServers</text><rect fill="#FFFFFF" filter="url(#f10bipx5501vv0)" height="126" style="stroke: #A80036; stroke-width: 1.0;" width="10" x="298.5" y="112.1094"/><ellipse cx="172" cy="82.0488" fill="none" rx="4" ry="4" style="stroke: #A80036; stroke-width: 1.5;"/><polygon fill="#A80036" points="155,78.7988,165,82.7988,155,86.7988,159,82.7988" style="stroke: #A80036; stroke-width: 1.0;"/><line style="stroke: #A80036; stroke-width: 1.0;" x1="55.5" x2="161" y1="82.7988" y2="82.7988"/><text fill="#000000" font-family="sans-serif" font-size="13" lengthAdjust="spacingAndGlyphs" textLength="93" x="62.5" y="78.0566">query: UDP(53)</text><ellipse cx="172" cy="111.3594" fill="none" rx="4" ry="4" style="stroke: #A80036; stroke-width: 1.5;"/><polygon fill="#A80036" points="286.5,108.1094,296.5,112.1094,286.5,116.1094,290.5,112.1094" style="stroke: #A80036; stroke-width: 1.0;"/><line style="stroke: #A80036; stroke-width: 1.0;" x1="176.5" x2="292.5" y1="112.1094" y2="112.1094"/><text fill="#000000" font-family="sans-serif" font-size="13" lengthAdjust="spacingAndGlyphs" textLength="93" x="179.5" y="107.3672">query: UDP(53)</text><polygon fill="#A80036" points="450.5,122.1094,460.5,126.1094,450.5,130.1094,454.5,126.1094" style="stroke: #A80036; stroke-width: 1.0;"/><line style="stroke: #A80036; stroke-width: 1.0;" x1="308.5" x2="456.5" y1="126.1094" y2="126.1094"/><polygon fill="#A80036" points="319.5,136.1094,309.5,140.1094,319.5,144.1094,315.5,140.1094" style="stroke: #A80036; stroke-width: 1.0;"/><line style="stroke: #A80036; stroke-width: 1.0; stroke-dasharray: 2.0,2.0;" x1="313.5" x2="461.5" y1="140.1094" y2="140.1094"/><polygon fill="#A80036" points="450.5,150.1094,460.5,154.1094,450.5,158.1094,454.5,154.1094" style="stroke: #A80036; stroke-width: 1.0;"/><line style="stroke: #A80036; stroke-width: 1.0;" x1="308.5" x2="456.5" y1="154.1094" y2="154.1094"/><polygon fill="#A80036" points="319.5,164.1094,309.5,168.1094,319.5,172.1094,315.5,168.1094" style="stroke: #A80036; stroke-width: 1.0;"/><line style="stroke: #A80036; stroke-width: 1.0; stroke-dasharray: 2.0,2.0;" x1="313.5" x2="461.5" y1="168.1094" y2="168.1094"/><polygon fill="#A80036" points="450.5,178.1094,460.5,182.1094,450.5,186.1094,454.5,182.1094" style="stroke: #A80036; stroke-width: 1.0;"/><line style="stroke: #A80036; stroke-width: 1.0;" x1="308.5" x2="456.5" y1="182.1094" y2="182.1094"/><polygon fill="#A80036" points="319.5,192.1094,309.5,196.1094,319.5,200.1094,315.5,196.1094" style="stroke: #A80036; stroke-width: 1.0;"/><line style="stroke: #A80036; stroke-width: 1.0; stroke-dasharray: 2.0,2.0;" x1="313.5" x2="461.5" y1="196.1094" y2="196.1094"/><polygon fill="#A80036" points="450.5,206.1094,460.5,210.1094,450.5,214.1094,454.5,210.1094" style="stroke: #A80036; stroke-width: 1.0;"/><line style="stroke: #A80036; stroke-width: 1.0;" x1="308.5" x2="456.5" y1="210.1094" y2="210.1094"/><polygon fill="#A80036" points="319.5,220.1094,309.5,224.1094,319.5,228.1094,315.5,224.1094" style="stroke: #A80036; stroke-width: 1.0;"/><line style="stroke: #A80036; stroke-width: 1.0; stroke-dasharray: 2.0,2.0;" x1="313.5" x2="461.5" y1="224.1094" y2="224.1094"/><ellipse cx="172" cy="237.3594" fill="none" rx="4" ry="4" style="stroke: #A80036; stroke-width: 1.5;"/><polygon fill="#A80036" points="189,234.1094,179,238.1094,189,242.1094,185,238.1094" style="stroke: #A80036; stroke-width: 1.0;"/><line style="stroke: #A80036; stroke-width: 1.0; stroke-dasharray: 2.0,2.0;" x1="187" x2="302.5" y1="238.1094" y2="238.1094"/><polygon fill="#A80036" points="66.5,248.1094,56.5,252.1094,66.5,256.1094,62.5,252.1094" style="stroke: #A80036; stroke-width: 1.0;"/><ellipse cx="172" cy="251.3594" fill="none" rx="4" ry="4" style="stroke: #A80036; stroke-width: 1.5;"/><line style="stroke: #A80036; stroke-width: 1.0; stroke-dasharray: 2.0,2.0;" x1="60.5" x2="167.5" y1="252.1094" y2="252.1094"/><!--MD5=[1d4c8812feaaa170ed9be9e9f3f20fe7]
@startuml
entity StubResolver
boundary DNSForwarder
entity FullServiceResolver
collections AuthoritativeServers
StubResolver ->o DNSForwarder: query: UDP(53)

DNSForwarder o-> FullServiceResolver: query: UDP(53)
activate FullServiceResolver
FullServiceResolver -> AuthoritativeServers
FullServiceResolver <- - AuthoritativeServers
FullServiceResolver -> AuthoritativeServers
FullServiceResolver <- - AuthoritativeServers
FullServiceResolver -> AuthoritativeServers
FullServiceResolver <- - AuthoritativeServers
FullServiceResolver -> AuthoritativeServers
FullServiceResolver <- - AuthoritativeServers

DNSForwarder o<- - FullServiceResolver
deactivate FullServiceResolver
StubResolver <- -o DNSForwarder
@enduml

PlantUML version 1.2020.10(Sun May 17 18:35:57 JST 2020)
(GPL source distribution)
Java Runtime: Java(TM) SE Runtime Environment
JVM: Java HotSpot(TM) 64-Bit Server VM
Java Version: 1.8.0_171-b11
Operating System: Mac OS X
Default Encoding: US-ASCII
Language: ja
Country: JP
--></g></svg>